<svg version="1.1" id="Layer_1" xmlns="http://www.w3.org/2000/svg" xmlns:xlink="http://www.w3.org/1999/xlink" x="0px" y="0px"
	 width="100%" viewBox="0 0 612 612" enable-background="new 0 0 612 612" xml:space="preserve">
<path fill="#FEFFFE" opacity="1.000000" stroke="none" 
	d="
M321.000000,613.000000 
	C214.000015,613.000000 107.500038,613.000000 1.000043,613.000000 
	C1.000029,409.000061 1.000029,205.000107 1.000014,1.000125 
	C204.999893,1.000083 408.999786,1.000083 612.999756,1.000042 
	C612.999878,204.999878 612.999878,408.999756 612.999939,612.999817 
	C515.833313,613.000000 418.666656,613.000000 321.000000,613.000000 
M23.867975,378.600769 
	C30.394287,404.571472 39.977520,429.367340 53.812313,452.300079 
	C107.837242,541.852478 187.076965,591.420166 291.434082,598.355652 
	C359.904572,602.906128 423.154266,584.604126 478.064667,543.309692 
	C567.212646,476.267456 607.366211,386.060242 596.905457,274.893494 
	C590.254822,204.217117 559.394897,144.256195 508.025177,95.374184 
	C460.572479,50.219513 403.952728,23.964138 338.686310,16.815979 
	C285.131256,10.950478 233.499847,18.688427 184.908279,41.797680 
	C102.348778,81.061455 48.461575,145.179092 24.480175,233.535706 
	C11.499761,281.360474 11.714714,329.639679 23.867975,378.600769 
z"/>
<path fill="#13A823" opacity="1.000000" stroke="none" 
	d="
M23.805485,378.193695 
	C11.714714,329.639679 11.499761,281.360474 24.480175,233.535706 
	C48.461575,145.179092 102.348778,81.061455 184.908279,41.797680 
	C233.499847,18.688427 285.131256,10.950478 338.686310,16.815979 
	C403.952728,23.964138 460.572479,50.219513 508.025177,95.374184 
	C559.394897,144.256195 590.254822,204.217117 596.905457,274.893494 
	C607.366211,386.060242 567.212646,476.267456 478.064667,543.309692 
	C423.154266,584.604126 359.904572,602.906128 291.434082,598.355652 
	C187.076965,591.420166 107.837242,541.852478 53.812313,452.300079 
	C39.977520,429.367340 30.394287,404.571472 23.805485,378.193695 
M460.202972,355.153107 
	C460.202972,355.153107 460.422821,355.193634 460.947449,355.058990 
	C461.115417,354.006470 461.283417,352.953918 461.476959,351.197144 
	C461.619904,350.750305 461.762817,350.303497 462.110901,349.623840 
	C462.197876,349.409241 462.166321,349.213806 462.028870,348.233185 
	C470.979584,302.903381 479.930328,257.573608 489.065308,211.310623 
	C484.805939,211.310623 481.371857,211.310623 477.937775,211.310623 
	C386.607819,211.310654 295.277863,211.281967 203.948074,211.403625 
	C199.791916,211.409149 198.209305,210.327530 197.510651,206.097931 
	C195.505402,193.958221 192.812378,181.933624 190.664978,169.815002 
	C189.998199,166.052216 188.565811,164.729080 184.582153,164.751602 
	C154.251236,164.923035 123.918869,164.833450 93.586960,164.850861 
	C92.146889,164.851700 90.706955,165.095016 88.888817,165.259659 
	C90.131432,171.722366 91.623833,177.704315 92.338150,183.777756 
	C92.882820,188.408768 94.804619,189.723892 99.375435,189.664459 
	C118.035980,189.421799 136.702484,189.665558 155.364746,189.500137 
	C158.638229,189.471130 160.176834,190.385315 160.801102,193.609116 
	C166.114853,221.051086 171.517181,248.475891 176.896469,275.905151 
	C185.095978,317.714722 193.357422,359.512360 201.412277,401.349762 
	C202.260803,405.757080 203.940872,407.124512 208.511185,407.116211 
	C292.174438,406.964264 375.838013,407.006805 459.501526,406.992920 
	C461.251740,406.992615 463.001953,406.811981 464.766205,406.714691 
	C464.766205,396.435974 464.766205,386.794678 464.766205,376.582397 
	C462.780304,376.582397 460.975281,376.582703 459.170258,376.582367 
	C385.006470,376.568909 310.842651,376.555389 236.678864,376.542358 
	C235.845581,376.542236 234.870148,376.828156 234.209442,376.492157 
	C232.943619,375.848358 231.087646,375.042633 230.823578,373.971893 
	C229.402725,368.210785 228.395935,362.347534 227.147644,356.019775 
	C231.184082,355.795807 234.622147,355.440125 238.060394,355.438568 
	C309.224396,355.406281 380.388428,355.412628 451.552460,355.423615 
	C453.379761,355.423889 455.207031,355.562836 457.499542,355.972351 
	C458.356445,355.759216 459.213348,355.546082 460.202972,355.153107 
M429.347260,419.008972 
	C410.522980,417.582062 390.638214,433.931427 395.300293,458.636810 
	C398.477478,475.473358 414.445984,486.413147 431.594574,484.406921 
	C448.292511,482.453369 460.328003,468.337250 460.168335,450.893433 
	C460.017151,434.380493 447.049225,420.574036 429.347260,419.008972 
M230.997757,422.399750 
	C217.499069,429.484650 210.656860,442.938751 213.097092,457.598511 
	C215.356461,471.171753 226.665726,482.168549 240.534012,484.277466 
	C254.689102,486.430054 268.348358,479.389191 274.913483,466.556030 
	C281.024719,454.610138 278.885345,439.696869 269.589752,429.445038 
	C260.223175,419.114929 245.892792,416.307404 230.997757,422.399750 
M342.500000,208.999390 
	C295.442200,208.999390 248.384415,208.999390 201.326614,208.999390 
	C201.327942,209.235519 201.329269,209.471664 201.330597,209.707794 
	C294.178009,209.707794 387.025421,209.707794 479.872833,209.707794 
	C479.873077,209.471664 479.873291,209.235519 479.873535,208.999390 
	C434.415680,208.999390 388.957855,208.999390 342.500000,208.999390 
M431.500000,374.993896 
	C439.563232,374.993896 447.626465,374.993896 455.689697,374.993896 
	C455.682434,374.758636 455.675140,374.523346 455.667877,374.288086 
	C381.489990,374.288086 307.312103,374.288086 233.134232,374.288086 
	C233.134186,374.523346 233.134155,374.758636 233.134125,374.993896 
	C298.922760,374.993896 364.711365,374.993896 431.500000,374.993896 
M243.555099,358.998779 
	C314.308533,358.998779 385.061981,358.998779 455.815430,358.998779 
	C455.814697,358.769775 455.813965,358.540771 455.813202,358.311768 
	C381.940430,358.311768 308.067688,358.311768 234.194916,358.311768 
	C234.193176,358.540771 234.191452,358.769775 234.189713,358.998779 
	C236.986816,358.998779 239.783936,358.998779 243.555099,358.998779 
z"/>
<path fill="#FBFDFB" opacity="1.000000" stroke="none" 
	d="
M457.034332,355.637146 
	C455.207031,355.562836 453.379761,355.423889 451.552460,355.423615 
	C380.388428,355.412628 309.224396,355.406281 238.060394,355.438568 
	C234.622147,355.440125 231.184082,355.795807 227.147644,356.019775 
	C228.395935,362.347534 229.402725,368.210785 230.823578,373.971893 
	C231.087646,375.042633 232.943619,375.848358 234.209442,376.492157 
	C234.870148,376.828156 235.845581,376.542236 236.678864,376.542358 
	C310.842651,376.555389 385.006470,376.568909 459.170258,376.582367 
	C460.975281,376.582703 462.780304,376.582397 464.766205,376.582397 
	C464.766205,386.794678 464.766205,396.435974 464.766205,406.714691 
	C463.001953,406.811981 461.251740,406.992615 459.501526,406.992920 
	C375.838013,407.006805 292.174438,406.964264 208.511185,407.116211 
	C203.940872,407.124512 202.260803,405.757080 201.412277,401.349762 
	C193.357422,359.512360 185.095978,317.714722 176.896469,275.905151 
	C171.517181,248.475891 166.114853,221.051086 160.801102,193.609116 
	C160.176834,190.385315 158.638229,189.471130 155.364746,189.500137 
	C136.702484,189.665558 118.035980,189.421799 99.375435,189.664459 
	C94.804619,189.723892 92.882820,188.408768 92.338150,183.777756 
	C91.623833,177.704315 90.131432,171.722366 88.888817,165.259659 
	C90.706955,165.095016 92.146889,164.851700 93.586960,164.850861 
	C123.918869,164.833450 154.251236,164.923035 184.582153,164.751602 
	C188.565811,164.729080 189.998199,166.052216 190.664978,169.815002 
	C192.812378,181.933624 195.505402,193.958221 197.510651,206.097931 
	C198.209305,210.327530 199.791916,211.409149 203.948074,211.403625 
	C295.277863,211.281967 386.607819,211.310654 477.937775,211.310623 
	C481.371857,211.310623 484.805939,211.310623 489.065308,211.310623 
	C479.930328,257.573608 470.979584,302.903381 461.897766,348.746277 
	C461.644379,349.497772 461.690735,349.696869 461.905731,349.856659 
	C461.762817,350.303497 461.619904,350.750305 461.281860,351.845398 
	C460.865448,353.393677 460.644135,354.293640 460.422821,355.193634 
	C460.422821,355.193634 460.202972,355.153107 459.753143,355.156921 
	C458.546997,355.319550 457.790649,355.478333 457.034332,355.637146 
M323.500092,291.660706 
	C315.843719,291.660706 308.174957,291.923553 300.535583,291.563263 
	C295.870789,291.343262 294.025146,292.592438 294.219757,297.552612 
	C294.565308,306.359711 294.426514,315.193878 294.224121,324.010620 
	C294.139648,327.690643 295.346466,328.874054 299.100861,328.846832 
	C320.570496,328.691040 342.041931,328.789948 363.512756,328.773590 
	C364.936859,328.772522 366.360809,328.533569 367.686371,328.414154 
	C367.686371,316.016724 367.686371,304.112946 367.686371,291.660614 
	C353.050323,291.660614 338.775208,291.660614 323.500092,291.660706 
M352.491760,238.232376 
	C334.695374,238.232513 316.898315,238.312469 299.103088,238.167404 
	C295.416168,238.137344 294.155029,239.315369 294.241333,243.036484 
	C294.457306,252.345474 294.395172,261.663971 294.267456,270.976196 
	C294.224670,274.096832 295.133881,275.424164 298.505188,275.408203 
	C320.458435,275.304230 342.412506,275.353821 364.366241,275.398773 
	C366.731018,275.403625 368.104645,274.823120 368.079651,272.067322 
	C367.987701,261.922577 367.997986,251.776260 368.065338,241.631165 
	C368.082642,239.024109 367.013245,238.121582 364.461914,238.224884 
	C360.809387,238.372772 357.145630,238.243408 352.491760,238.232376 
M260.491882,238.234863 
	C241.898911,238.234863 223.305954,238.234863 203.904907,238.234863 
	C206.360947,250.533463 208.536636,261.912476 211.060669,273.213715 
	C211.279495,274.193451 213.792877,275.262787 215.247696,275.273193 
	C234.241608,275.408875 253.237534,275.277649 272.231140,275.434021 
	C275.745605,275.462952 276.460052,274.031647 276.387604,270.984039 
	C276.245087,264.988800 276.418121,258.986603 276.323456,252.989456 
	C276.250336,248.359940 277.723724,241.769180 275.319183,239.620163 
	C272.526428,237.124207 266.250793,238.525314 260.491882,238.234863 
M441.468079,238.233170 
	C424.476471,238.249680 407.483734,238.375015 390.494202,238.195892 
	C386.860443,238.157593 385.935577,239.373108 385.998077,242.764450 
	C386.169983,252.090073 386.229187,261.425659 385.975098,270.747528 
	C385.869232,274.631012 387.270630,275.457977 390.901825,275.407288 
	C404.891693,275.211884 418.886230,275.373108 432.878815,275.334412 
	C437.356964,275.322021 443.237823,276.776917 445.929688,274.521088 
	C448.796509,272.118561 448.829010,266.153473 449.770935,261.674835 
	C451.359863,254.119995 452.690033,246.510742 454.260101,238.233200 
	C449.726562,238.233200 446.090637,238.233200 441.468079,238.233170 
M224.095184,328.758698 
	C241.343704,328.758698 258.592224,328.758698 276.339233,328.758698 
	C276.339233,317.458282 276.177094,306.830597 276.423401,296.212372 
	C276.514893,292.267120 274.989685,291.555267 271.441010,291.589264 
	C254.298325,291.753448 237.153214,291.657776 220.008972,291.673737 
	C218.400391,291.675232 216.791962,291.812500 214.474945,291.919464 
	C216.897400,304.044952 219.179810,315.578339 221.561050,327.091248 
	C221.690384,327.716553 222.646393,328.170837 224.095184,328.758698 
M403.503174,328.765808 
	C412.996796,328.766022 422.495667,328.585297 431.981415,328.858521 
	C435.604858,328.962860 436.895416,327.738464 437.469604,324.281372 
	C438.749390,316.576111 440.486755,308.947693 441.969818,301.274872 
	C442.548248,298.282227 442.944214,295.254333 443.452240,292.060486 
	C423.945953,292.060486 405.244324,292.060486 386.362061,292.060486 
	C386.362061,304.360962 386.362061,316.257294 386.362061,328.765747 
	C391.940308,328.765747 397.222870,328.765747 403.503174,328.765808 
z"/>
<path fill="#FAFDFA" opacity="1.000000" stroke="none" 
	d="
M429.800598,419.026855 
	C447.049225,420.574036 460.017151,434.380493 460.168335,450.893433 
	C460.328003,468.337250 448.292511,482.453369 431.594574,484.406921 
	C414.445984,486.413147 398.477478,475.473358 395.300293,458.636810 
	C390.638214,433.931427 410.522980,417.582062 429.800598,419.026855 
M433.183319,446.127594 
	C430.127045,443.189209 426.339264,442.717651 423.278595,445.155914 
	C421.277924,446.749725 419.258850,450.310944 419.707062,452.483551 
	C420.265137,455.188477 422.936340,458.434113 425.486816,459.441315 
	C427.515625,460.242584 431.327179,458.715118 433.290131,457.006775 
	C436.572052,454.150574 436.175385,450.256256 433.183319,446.127594 
z"/>
<path fill="#FAFDFA" opacity="1.000000" stroke="none" 
	d="
M231.324585,422.206085 
	C245.892792,416.307404 260.223175,419.114929 269.589752,429.445038 
	C278.885345,439.696869 281.024719,454.610138 274.913483,466.556030 
	C268.348358,479.389191 254.689102,486.430054 240.534012,484.277466 
	C226.665726,482.168549 215.356461,471.171753 213.097092,457.598511 
	C210.656860,442.938751 217.499069,429.484650 231.324585,422.206085 
M251.097610,457.667328 
	C253.980072,454.669586 254.526047,451.314178 252.413132,447.706573 
	C250.513794,444.463715 247.258759,442.784637 243.990005,444.138306 
	C241.465302,445.183868 238.605789,447.798676 237.945297,450.264832 
	C237.346375,452.501160 238.878693,456.046326 240.613205,458.001465 
	C243.416397,461.161194 247.180969,460.412994 251.097610,457.667328 
z"/>
<path fill="#0FA913" opacity="1.000000" stroke="none" 
	d="
M343.000000,208.999390 
	C388.957855,208.999390 434.415680,208.999390 479.873535,208.999390 
	C479.873291,209.235519 479.873077,209.471664 479.872833,209.707794 
	C387.025421,209.707794 294.178009,209.707794 201.330597,209.707794 
	C201.329269,209.471664 201.327942,209.235519 201.326614,208.999390 
	C248.384415,208.999390 295.442200,208.999390 343.000000,208.999390 
z"/>
<path fill="#05AB1D" opacity="1.000000" stroke="none" 
	d="
M431.000000,374.993896 
	C364.711365,374.993896 298.922760,374.993896 233.134125,374.993896 
	C233.134155,374.758636 233.134186,374.523346 233.134232,374.288086 
	C307.312103,374.288086 381.489990,374.288086 455.667877,374.288086 
	C455.675140,374.523346 455.682434,374.758636 455.689697,374.993896 
	C447.626465,374.993896 439.563232,374.993896 431.000000,374.993896 
z"/>
<path fill="#20A21C" opacity="1.000000" stroke="none" 
	d="
M243.068069,358.998779 
	C239.783936,358.998779 236.986816,358.998779 234.189713,358.998779 
	C234.191452,358.769775 234.193176,358.540771 234.194916,358.311768 
	C308.067688,358.311768 381.940430,358.311768 455.813202,358.311768 
	C455.813965,358.540771 455.814697,358.769775 455.815430,358.998779 
	C385.061981,358.998779 314.308533,358.998779 243.068069,358.998779 
z"/>
<path fill="#45BD5B" opacity="1.000000" stroke="none" 
	d="
M460.685120,355.126312 
	C460.644135,354.293640 460.865448,353.393677 461.269073,352.197540 
	C461.283417,352.953918 461.115417,354.006470 460.685120,355.126312 
z"/>
<path fill="#45BD5B" opacity="1.000000" stroke="none" 
	d="
M457.266937,355.804749 
	C457.790649,355.478333 458.546997,355.319550 459.686768,355.246826 
	C459.213348,355.546082 458.356445,355.759216 457.266937,355.804749 
z"/>
<path fill="#45BD5B" opacity="1.000000" stroke="none" 
	d="
M462.008301,349.740234 
	C461.690735,349.696869 461.644379,349.497772 461.891418,349.148438 
	C462.166321,349.213806 462.197876,349.409241 462.008301,349.740234 
z"/>
<path fill="#16A926" opacity="1.000000" stroke="none" 
	d="
M324.000122,291.660645 
	C338.775208,291.660614 353.050323,291.660614 367.686371,291.660614 
	C367.686371,304.112946 367.686371,316.016724 367.686371,328.414154 
	C366.360809,328.533569 364.936859,328.772522 363.512756,328.773590 
	C342.041931,328.789948 320.570496,328.691040 299.100861,328.846832 
	C295.346466,328.874054 294.139648,327.690643 294.224121,324.010620 
	C294.426514,315.193878 294.565308,306.359711 294.219757,297.552612 
	C294.025146,292.592438 295.870789,291.343262 300.535583,291.563263 
	C308.174957,291.923553 315.843719,291.660706 324.000122,291.660645 
z"/>
<path fill="#16A926" opacity="1.000000" stroke="none" 
	d="
M352.989197,238.232407 
	C357.145630,238.243408 360.809387,238.372772 364.461914,238.224884 
	C367.013245,238.121582 368.082642,239.024109 368.065338,241.631165 
	C367.997986,251.776260 367.987701,261.922577 368.079651,272.067322 
	C368.104645,274.823120 366.731018,275.403625 364.366241,275.398773 
	C342.412506,275.353821 320.458435,275.304230 298.505188,275.408203 
	C295.133881,275.424164 294.224670,274.096832 294.267456,270.976196 
	C294.395172,261.663971 294.457306,252.345474 294.241333,243.036484 
	C294.155029,239.315369 295.416168,238.137344 299.103088,238.167404 
	C316.898315,238.312469 334.695374,238.232513 352.989197,238.232407 
z"/>
<path fill="#15A925" opacity="1.000000" stroke="none" 
	d="
M260.989380,238.234894 
	C266.250793,238.525314 272.526428,237.124207 275.319183,239.620163 
	C277.723724,241.769180 276.250336,248.359940 276.323456,252.989456 
	C276.418121,258.986603 276.245087,264.988800 276.387604,270.984039 
	C276.460052,274.031647 275.745605,275.462952 272.231140,275.434021 
	C253.237534,275.277649 234.241608,275.408875 215.247696,275.273193 
	C213.792877,275.262787 211.279495,274.193451 211.060669,273.213715 
	C208.536636,261.912476 206.360947,250.533463 203.904907,238.234863 
	C223.305954,238.234863 241.898911,238.234863 260.989380,238.234894 
z"/>
<path fill="#15A925" opacity="1.000000" stroke="none" 
	d="
M441.961395,238.233185 
	C446.090637,238.233200 449.726562,238.233200 454.260101,238.233200 
	C452.690033,246.510742 451.359863,254.119995 449.770935,261.674835 
	C448.829010,266.153473 448.796509,272.118561 445.929688,274.521088 
	C443.237823,276.776917 437.356964,275.322021 432.878815,275.334412 
	C418.886230,275.373108 404.891693,275.211884 390.901825,275.407288 
	C387.270630,275.457977 385.869232,274.631012 385.975098,270.747528 
	C386.229187,261.425659 386.169983,252.090073 385.998077,242.764450 
	C385.935577,239.373108 386.860443,238.157593 390.494202,238.195892 
	C407.483734,238.375015 424.476471,238.249680 441.961395,238.233185 
z"/>
<path fill="#15A925" opacity="1.000000" stroke="none" 
	d="
M223.656372,328.731689 
	C222.646393,328.170837 221.690384,327.716553 221.561050,327.091248 
	C219.179810,315.578339 216.897400,304.044952 214.474945,291.919464 
	C216.791962,291.812500 218.400391,291.675232 220.008972,291.673737 
	C237.153214,291.657776 254.298325,291.753448 271.441010,291.589264 
	C274.989685,291.555267 276.514893,292.267120 276.423401,296.212372 
	C276.177094,306.830597 276.339233,317.458282 276.339233,328.758698 
	C258.592224,328.758698 241.343704,328.758698 223.656372,328.731689 
z"/>
<path fill="#15A925" opacity="1.000000" stroke="none" 
	d="
M403.004303,328.765778 
	C397.222870,328.765747 391.940308,328.765747 386.362061,328.765747 
	C386.362061,316.257294 386.362061,304.360962 386.362061,292.060486 
	C405.244324,292.060486 423.945953,292.060486 443.452240,292.060486 
	C442.944214,295.254333 442.548248,298.282227 441.969818,301.274872 
	C440.486755,308.947693 438.749390,316.576111 437.469604,324.281372 
	C436.895416,327.738464 435.604858,328.962860 431.981415,328.858521 
	C422.495667,328.585297 412.996796,328.766022 403.004303,328.765778 
z"/>
<path fill="#1CAA2C" opacity="1.000000" stroke="none" 
	d="
M433.430298,446.418945 
	C436.175385,450.256256 436.572052,454.150574 433.290131,457.006775 
	C431.327179,458.715118 427.515625,460.242584 425.486816,459.441315 
	C422.936340,458.434113 420.265137,455.188477 419.707062,452.483551 
	C419.258850,450.310944 421.277924,446.749725 423.278595,445.155914 
	C426.339264,442.717651 430.127045,443.189209 433.430298,446.418945 
z"/>
<path fill="#1DAA2C" opacity="1.000000" stroke="none" 
	d="
M250.831207,457.940033 
	C247.180969,460.412994 243.416397,461.161194 240.613205,458.001465 
	C238.878693,456.046326 237.346375,452.501160 237.945297,450.264832 
	C238.605789,447.798676 241.465302,445.183868 243.990005,444.138306 
	C247.258759,442.784637 250.513794,444.463715 252.413132,447.706573 
	C254.526047,451.314178 253.980072,454.669586 250.831207,457.940033 
z"/>
</svg>